/* XPM */
static char *add662065a5340e59171d06a6dc26802[] = {
/* columns rows colors chars-per-pixel */
"64 64 126 2 ",
"   c #000000",
".  c #0B0304",
"X  c #040708",
"o  c #050A0C",
"O  c #130606",
"+  c #1E0606",
"@  c #130708",
"#  c #1C0909",
"$  c #070E11",
"%  c #081215",
"&  c #0A161A",
"*  c #0C1A1E",
"=  c #2A0707",
"-  c #240C0C",
";  c #2B0D0D",
":  c #330909",
">  c #3C0B0B",
",  c #2F1010",
"<  c #361212",
"1  c #3B1414",
"2  c #0D1D22",
"3  c #0F2329",
"4  c #10242A",
"5  c #142D34",
"6  c #153139",
"7  c #440C0C",
"8  c #4E0E0E",
"9  c #520E0E",
"0  c #421616",
"q  c #4B1919",
"w  c #5B1111",
"e  c #551C1C",
"r  c #5B1E1E",
"t  c #641212",
"y  c #6C1515",
"u  c #741414",
"i  c #642121",
"p  c #6B2424",
"a  c #722626",
"s  c #7C2929",
"d  c #193A43",
"f  c #1B3E49",
"g  c #253C46",
"h  c #1C424D",
"j  c #1E4652",
"k  c #224D5A",
"l  c #23505E",
"z  c #255462",
"x  c #275867",
"c  c #285A69",
"v  c #375866",
"b  c #2B6273",
"n  c #2E6779",
"m  c #2E697B",
"M  c #306D7F",
"N  c #831717",
"B  c #8C1818",
"V  c #961A1A",
"C  c #9D1B1B",
"Z  c #A41C1C",
"A  c #AB1E1E",
"S  c #B11F1F",
"D  c #832C2C",
"F  c #8A2E2E",
"G  c #953131",
"H  c #9C3434",
"J  c #A92626",
"K  c #B52020",
"L  c #BE2121",
"P  c #A33636",
"I  c #AD3939",
"U  c #B63D3D",
"Y  c #BB3E3E",
"T  c #C22424",
"R  c #D42525",
"E  c #DD2727",
"W  c #D03232",
"Q  c #D23A3A",
"!  c #E42828",
"~  c #EB2929",
"^  c #F72B2B",
"/  c #F82E2E",
"(  c #F93333",
")  c #FA3B3B",
"_  c #C24141",
"`  c #CA4444",
"'  c #D34747",
"]  c #D74848",
"[  c #DC4949",
"{  c #E34C4C",
"}  c #EB4E4E",
"|  c #FC4444",
" . c #FD4C4C",
".. c #EF5050",
"X. c #F35151",
"o. c #FF5555",
"O. c #316F82",
"+. c #337286",
"@. c #34768A",
"#. c #35788C",
"$. c #387F94",
"%. c #3B869C",
"&. c #3C889F",
"*. c #3D8BA3",
"=. c #3F90A8",
"-. c #4193AC",
";. c #449BB5",
":. c #469FBA",
">. c #47A2BD",
",. c #4BAAC7",
"<. c #4CADCA",
"1. c #4EB0CE",
"2. c #4FB4D2",
"3. c #51B7D6",
"4. c #52BBDB",
"5. c #54BFE0",
"6. c #77C0DF",
"7. c #57C5E7",
"8. c #57C6E8",
"9. c #59CAEC",
"0. c #5ACDF0",
"q. c #5CD1F4",
"w. c #5ED6FA",
"e. c #5FD8FD",
"r. c #60DAFF",
"t. c None",
/* pixels */
"t.t.t.t.t.t.t.t.t.t.t.t.t.t.t.t.t.t.t.t.t.t.t.t.t.t.t.t.t.t.t.t.t.t.t.t.t.t.t.t.t.t.t.t.t.t.t.t.t.t.t.t.t.t.t.t.t.t.t.t.t.t.t.t.",
"t.t.t.t.t.t.t.t.t.t.t.t.t.t.t.t.t.t.t.t.t.t.t.t.t.t.t.t.t.t.t.t.t.t.t.t.t.t.t.t.t.t.t.t.t.t.t.t.t.t.t.t.t.t.t.t.t.t.t.t.t.t.t.t.",
"t.t.t.t.t.t.t.t.t.t.t.t.t.t.t.t.t.t.t.t.t.t.t.t.t.t.t.t.t.t.t.t.t.t.t.t.t.t.t.t.t.t.t.t.t.t.t.t.t.t.t.t.t.t.t.t.t.t.t.t.t.t.t.t.",
"t.t.t.t.t.t.t.t.t.t.t.t.t.t.t.t.t.t.t.t.t.t.t.t.t.t.t.t.t.t.t.t.t.t.t.t.t.t.t.t.t.t.t.t.t.t.t.t.t.t.t.t.t.t.t.t.t.t.t.t.t.t.t.t.",
"t.t.t.t.t.t.t.t.t.t.t.t.t.t.t.t.t.t.t.t.t.t.t.t.t.t.t.t.t.t.t.t.t.t.t.t.t.t.t.t.t.t.t.t.t.t.t.t.t.t.t.t.t.t.t.t.t.t.t.t.t.t.t.t.",
"t.t.t.t.t.t.t.t.t.t.t.t.t.t.t.t.t.t.t.t.t.t.t.t.t.t.t.t.t.t.t.t.t.t.t.t.t.t.t.t.t.t.t.t.t.t.t.t.t.t.t.t.t.t.t.t.t.t.t.t.t.t.t.t.",
"t.t.t.t.t.t.t.t.t.t.t.t.t.t.                      t.t.t.t.t.t.t.t.t.t.t.t.t.t.                    t.t.t.t.t.t.t.t.t.t.t.t.t.t.t.",
"t.t.t.t.t.t.t.t.t.t.t.t.        1 i D G D r < .       t.t.t.t.t.t.t.t.t.t.      @ 0 i F G a q -       t.t.t.t.t.t.t.t.t.t.t.t.t.",
"t.t.t.t.t.t.t.t.t.t.t.    O G } o.o.o.o.o.o.o...F -     t.t.t.t.t.t.t.      1 P X.o.o.o.o.o.o.o.Q w       t.t.t.t.t.t.t.t.t.t.t.",
"t.t.t.t.t.t.t.t.t.      q } o.o.o.o.o.o.o.o.o.o.o.o.H       t.t.t.t.    # _ o.o.o.o.o.o.o.o.o.o.o.( R y y t.t.t.t.t.t.t.t.t.t.t.",
"t.t.t.t.t.t.t.t.    . H o.o.o.o.o.o.o.o.o.o.o.o.o.o.o.' ;     t.t.    q ..o.o.o.o.o.o.o.o.o.o.o.o. .^ ^ / ( t.t.t.t.t.t.t.t.t.t.",
"t.t.t.t.t.t.t.t.  O [ o.o.o.o.o.o.o.o.o.o.o.o.o.o.o.o.o.X.,         i o.o.o.o.o.o.o.o.o.o.o.o.o.o.o.) ^ ^ ^ y   t.t.t.t.t.t.t.t.",
"t.t.t.t.t.t.t.    P o.o.o.o.o.o.o.o.o.o.o.o.o.o.o.o.o.o.o.] .     , X.o.o.o.o.o.o.o.o.o.o.o.o.o.o.o. .^ ^ ^ C     t.t.t.t.t.t.t.",
"t.t.t.t.t.t.    q o.o.o.o.o.o.o.o.o.o.o.o.o.o.o.o.o.o.o.o.o.U   O [ o.o.o.o.o.o.o.o.o.o.o.o.o.o.o.o.o.^ ^ ^ ^ =   t.t.t.t.t.t.t.",
"t.t.t.t.t.t.  O } o.o.o.o.o.o.o.o.o.o.o.o.o.o.o.o.o.o.o.o.o.o._ [ o.o.o.o.o.o.o.o.o.o.o.o.o.o.o.o.o.o.^ ^ ^ ^ K     t.t.t.t.t.t.",
"t.t.t.t.t.    H o.o.o.o.o.o.o.o.o.o.o.o.o.o.o.o.o.o.o.o.o.o.o.o.o.o.o.o.o.o.o.o.o.o.o.o.o.o.o.o.o.o.o.( ^ ^ ^ / 7   t.t.t.t.t.t.",
"t.t.t.t.t.    X.o.o.o.o.o.o.o.o.o.o.o.o.o.o.o.o.o.{ H U o.o.o.o.o.o.o.o.o.o.o.o.o.o.o.o.o.o.o.o.o.o.o.( ^ ^ ^ ^ S     t.t.t.t.t.",
"t.t.t.t.t.  q o.o.o.o.o.o.o.o.o.o.o.o.o.o.o.o.o.[ O     q o.o.o.o.o.o.o.o.o.o.o.o.o.o.o.o.o.o.o.o.o.o./ ^ ^ ^ ^ E     t.t.t.t.t.",
"t.t.t.t.t.  s o.o.o.o.o.o.o.o.o.o.o.o.o.o.o.o.o.q   l 2   ` o.o.o.o.o.o.o.o.o.o.o.o.o.o.o.o.o.o.o.o.o.^ ^ ^ ^ ^ ^ O   t.t.t.t.t.",
"t.t.t.t.t.  G o.o.o.o.o.o.o.o.o.o.o.o.o.o.o.o.]   2 e.#.  F o.o.o.o.o.o.o.o.o.o.o.o.o.o.o.o.o.o.o.o. .^ ^ ^ ^ ^ ^ >   t.t.t.t.t.",
"t.t.t.t.    I o.o.o.o.o.o.o.o.o.o.o.o.o.o.o.o.a   @.r.>.  r o.o.o.o.o.o.o.o.o.o.o.o.o.o.o.o.o.o.o.o.| ^ ^ ^ ^ ^ ^ t   t.t.t.t.t.",
"t.t.t.t.t.  H o.o.o.o.o.o.o.o.o.o.o.o.o.o.o.X.@ X 9.r.9.  ; o.o.o.o.o.o.o.o.o.o.o.o.o.o.o.o.o.o.o.o.| ^ ^ ^ ^ ^ ^ w   t.t.t.t.t.",
"t.t.t.t.t.  D o.o.o.o.o.o.o.o.o.o.o.o.o.o.o.G   z e.r.r.*   X.o.o.o.o.o.o.o.o.o.o.o.o.o.o.o.o.o.o.o.) ^ ^ ^ ^ ^ ^ 7   t.t.t.t.t.",
"t.t.t.t.t.  a o.o.o.o.o.o.o.o.o.o.o.o.o.o.o.,   <.w.3.r.h   ` o.o.o.o.o.o.o.o.o.o.o.o.o.o.o.o.o.o.o./ ^ ^ ^ ^ ^ ^ :   t.t.t.t.t.",
"t.t.t.t.t.  e o.o.o.o.o.o.o.o.o.o.o.o.o.o._   5 r.d X 7.O.  H o.o.o.o.o.o.o.o.o.o.o.o.o.o.o.o.o.o.| ^ ^ ^ ^ ^ ^ ^ O   t.t.t.t.t.",
"t.t.t.t.t.  # o.o.o.o.o.o.o.o.o.o.o.o.o.o.e   *.1.    =.-.  p o.o...P G G H G H ` o.o.o.o.o.o.o.o.) ^ ^ ^ ^ ^ ^ R     t.t.t.t.t.",
"t.t.t.t.t.    ] o.o.o.o.o.o.o.o.o.o.o.o.}   % w.z     m 5.  < o.U .               i o.o.o.o.o.o.o.^ ^ ^ ^ ^ ^ ^ V     t.t.t.t.t.",
"t.t.t.t.t.    H o.o.o.o.o.o.o.o.o.o.o.o.s   n 9.X     h r.$ . o.-   c @.@.O.@.O.*   P o.o.o.o.o.) ^ ^ ^ ^ ^ ^ ^ w   t.t.t.t.t.t.",
"t.t.          # < < < < < < < < < < < e @   7.@.  i   * r.d   Y   5 r.0.,.,.<.w.,.  @ } ] i < < : B / / Z > : : .           t.t.",
"                                          j e.2   ' ,   8.b   r   l q.4       5 w.b   -           g 6.6.v                     t.",
"  $ 2.7.7.7.7.7.7.7.7.7.8.7.7.7.8.7.8.%.5 2.;.  0 o.i   :.*.  .   @.<.  # e ;   O.q.3   . -.7.7.7.r.r.r.r.9.7.7.7.7.7.7.7.=.    ",
"    j x x x x x x x x x x x x x c x ;.r.e.e.h   I o.F   @.2.      ;.*.  a o.{ .   2.,.3 *.q.m x x x x x x x x x x x x x x 6     ",
"t.                                    4.r.4.  - X.o._   k e.      4.b   H o.o.G   6 e.e.e.f                                   t.",
"t.t.t.t.t.t.t.t.  . I Y Y U U U U a   l r.b   D o.o...  4 r.5   o r.f   ` o.o.o.1   @.e.b   = S S S S S S B     t.t.t.t.t.t.t.t.",
"t.t.t.t.t.t.t.t.    s o.o.o.o.o.o.X.@   l X   ..o.o.o.-   w.z   5 r.*   X.o.o.o.] . . d   O R ^ ^ ^ ^ ^ ^ 7   t.t.t.t.t.t.t.t.t.",
"t.t.t.t.t.t.t.t.t.    ] o.o.o.o.o.o.Y .     P o.o.o.o.q   <.$.  z 0.  # o.o.o.o.o.I     O L ^ ^ ^ ^ ^ ^ C     t.t.t.t.t.t.t.t.t.",
"t.t.t.t.t.t.t.t.t.t.  0 o.o.o.o.o.o.o.} I { o.o.o.o.o.s   %.0.l 3.,.  q o.o.o.o.o.o.} T ~ ^ ^ ^ ^ ^ ^ ~ +   t.t.t.t.t.t.t.t.t.t.",
"t.t.t.t.t.t.t.t.t.t.    H o.o.o.o.o.o.o.o.o.o.o.o.o.o.U   c e.r.e.*.  a o.o.o.o.o.o.( ^ ^ ^ ^ ^ ^ ^ ^ t     t.t.t.t.t.t.t.t.t.t.",
"t.t.t.t.t.t.t.t.t.t.t.  @ } o.o.o.o.o.o.o.o.o.o.o.o.o.[   6 r.r.r.b   H o.o.o.o.o.) ^ ^ ^ ^ ^ ^ ^ ^ K     t.t.t.t.t.t.t.t.t.t.t.",
"t.t.t.t.t.t.t.t.t.t.t.    q X.o.o.o.o.o.o.o.o.o.o.o.o.o.O o r.r.r.h   ` o.o.o.o.| ^ ^ ^ ^ ^ ^ ^ ^ R O   t.t.t.t.t.t.t.t.t.t.t.t.",
"t.t.t.t.t.t.t.t.t.t.t.t.    p o.o.o.o.o.o.o.o.o.o.o.o.o.1   3.r.r.*   X.o.o.o.| ^ ^ ^ ^ ^ ^ ^ ^ ~ :     t.t.t.t.t.t.t.t.t.t.t.t.",
"t.t.t.t.t.t.t.t.t.t.t.t.t.    G o.o.o.o.o.o.o.o.o.o.o.o.a   -.r.q.  # o.o.o.| ^ ^ ^ ^ ^ ^ ^ ^ ^ w     t.t.t.t.t.t.t.t.t.t.t.t.t.",
"t.t.t.t.t.t.t.t.t.t.t.t.t.t.    Y o.o.o.o.o.o.o.o.o.o.o.H   m r.<.  q o.o.| ^ ^ ^ ^ ^ ^ ^ ^ ^ V     t.t.t.t.t.t.t.t.t.t.t.t.t.t.",
"t.t.t.t.t.t.t.t.t.t.t.t.t.t.t.  @ [ o.o.o.o.o.o.o.o.o.o.`   f r.&.  a o.| ^ ^ ^ ^ ^ ^ ^ ^ ^ C     t.t.t.t.t.t.t.t.t.t.t.t.t.t.t.",
"t.t.t.t.t.t.t.t.t.t.t.t.t.t.t.    , o.o.o.o.o.o.o.o.o.o.o.  & r.b   H | ^ ^ ^ ^ ^ ^ ^ ^ ^ Z     t.t.t.t.t.t.t.t.t.t.t.t.t.t.t.t.",
"t.t.t.t.t.t.t.t.t.t.t.t.t.t.t.t.  # X.o.o.o.o.o.o.o.o.o.o.<   O.*   W ^ ^ ^ ^ ^ ^ ^ ^ ^ Z     t.t.t.t.t.t.t.t.t.t.t.t.t.t.t.t.t.",
"t.t.t.t.t.t.t.t.t.t.t.t.t.t.t.t.t.t.t.o.o.o.o.o.o.o.o.o.o._       w ^ ^ ^ ^ ^ ^ ^ ^ ^ A     t.t.t.t.t.t.t.t.t.t.t.t.t.t.t.t.t.t.",
"t.t.t.t.t.t.t.t.t.t.t.t.t.t.t.t.t.t.t.i r } o.o.o.o.o.o.o.o.` s J ^ ^ ^ ^ ^ ^ ^ ^ ^ A     t.t.t.t.t.t.t.t.t.t.t.t.t.t.t.t.t.t.t.",
"t.t.t.t.t.t.t.t.t.t.t.t.t.t.t.t.t.t.t.    - ] o.o.o.o.o.o.o.o.( ^ ^ ^ ^ ^ ^ ^ ^ ^ S .   t.t.t.t.t.t.t.t.t.t.t.t.t.t.t.t.t.t.t.t.",
"t.t.t.t.t.t.t.t.t.t.t.t.t.t.t.t.t.t.t.t.    # _ o.o.o.o.o. .( ^ ^ ^ ^ ^ ^ ^ ^ ^ S .   t.t.t.t.t.t.t.t.t.t.t.t.t.t.t.t.t.t.t.t.t.",
"t.t.t.t.t.t.t.t.t.t.t.t.t.t.t.t.t.t.t.t.t.    . I o.o.o.| ^ ^ ^ ^ ^ ^ ^ ^ ^ ^ B     t.t.t.t.t.t.t.t.t.t.t.t.t.t.t.t.t.t.t.t.t.t.",
"t.t.t.t.t.t.t.t.t.t.t.t.t.t.t.t.t.t.t.t.t.t.t.    G o.) ^ ^ ^ ^ ^ ^ ^ ^ ^ ~ 9     t.t.t.t.t.t.t.t.t.t.t.t.t.t.t.t.t.t.t.t.t.t.t.",
"t.t.t.t.t.t.t.t.t.t.t.t.t.t.t.t.t.t.t.t.t.t.t.t.    y ^ ^ ^ ^ ^ ^ ^ ^ ^ R =     t.t.t.t.t.t.t.t.t.t.t.t.t.t.t.t.t.t.t.t.t.t.t.t.",
"t.t.t.t.t.t.t.t.t.t.t.t.t.t.t.t.t.t.t.t.t.t.t.t.t.    9 ~ ^ ^ ^ ^ ^ ^ A .     t.t.t.t.t.t.t.t.t.t.t.t.t.t.t.t.t.t.t.t.t.t.t.t.t.",
"t.t.t.t.t.t.t.t.t.t.t.t.t.t.t.t.t.t.t.t.t.t.t.t.t.t.    + T ^ ^ ^ ^ u       t.t.t.t.t.t.t.t.t.t.t.t.t.t.t.t.t.t.t.t.t.t.t.t.t.t.",
"t.t.t.t.t.t.t.t.t.t.t.t.t.t.t.t.t.t.t.t.t.t.t.t.t.t.t.      N ^ ! 7     t.t.t.t.t.t.t.t.t.t.t.t.t.t.t.t.t.t.t.t.t.t.t.t.t.t.t.t.",
"t.t.t.t.t.t.t.t.t.t.t.t.t.t.t.t.t.t.t.t.t.t.t.t.t.t.t.t.t.    > +     t.t.t.t.t.t.t.t.t.t.t.t.t.t.t.t.t.t.t.t.t.t.t.t.t.t.t.t.t.",
"t.t.t.t.t.t.t.t.t.t.t.t.t.t.t.t.t.t.t.t.t.t.t.t.t.t.t.t.t.t.        t.t.t.t.t.t.t.t.t.t.t.t.t.t.t.t.t.t.t.t.t.t.t.t.t.t.t.t.t.t.",
"t.t.t.t.t.t.t.t.t.t.t.t.t.t.t.t.t.t.t.t.t.t.t.t.t.t.t.t.t.t.t.t.t.t.t.t.t.t.t.t.t.t.t.t.t.t.t.t.t.t.t.t.t.t.t.t.t.t.t.t.t.t.t.t.",
"t.t.t.t.t.t.t.t.t.t.t.t.t.t.t.t.t.t.t.t.t.t.t.t.t.t.t.t.t.t.t.t.t.t.t.t.t.t.t.t.t.t.t.t.t.t.t.t.t.t.t.t.t.t.t.t.t.t.t.t.t.t.t.t.",
"t.t.t.t.t.t.t.t.t.t.t.t.t.t.t.t.t.t.t.t.t.t.t.t.t.t.t.t.t.t.t.t.t.t.t.t.t.t.t.t.t.t.t.t.t.t.t.t.t.t.t.t.t.t.t.t.t.t.t.t.t.t.t.t.",
"t.t.t.t.t.t.t.t.t.t.t.t.t.t.t.t.t.t.t.t.t.t.t.t.t.t.t.t.t.t.t.t.t.t.t.t.t.t.t.t.t.t.t.t.t.t.t.t.t.t.t.t.t.t.t.t.t.t.t.t.t.t.t.t.",
"t.t.t.t.t.t.t.t.t.t.t.t.t.t.t.t.t.t.t.t.t.t.t.t.t.t.t.t.t.t.t.t.t.t.t.t.t.t.t.t.t.t.t.t.t.t.t.t.t.t.t.t.t.t.t.t.t.t.t.t.t.t.t.t.",
"t.t.t.t.t.t.t.t.t.t.t.t.t.t.t.t.t.t.t.t.t.t.t.t.t.t.t.t.t.t.t.t.t.t.t.t.t.t.t.t.t.t.t.t.t.t.t.t.t.t.t.t.t.t.t.t.t.t.t.t.t.t.t.t."
};
